<?xml version="1.0" encoding="UTF-8"?>
<svg width="232px" height="227px" viewBox="0 0 232 227" version="1.1" xmlns="http://www.w3.org/2000/svg" xmlns:xlink="http://www.w3.org/1999/xlink">
    <!-- Generator: Sketch 46.2 (44496) - http://www.bohemiancoding.com/sketch -->
    <title>icon_triple_inverted</title>
    <desc>Created with Sketch.</desc>
    <defs>
        <rect id="path-1" x="0" y="0" width="118" height="118" rx="16"></rect>
        <rect id="path-2" x="0" y="0" width="120" height="120" rx="16"></rect>
        <rect id="path-3" x="0" y="0" width="120" height="120" rx="16"></rect>
    </defs>
    <g id="Logos" stroke="none" stroke-width="1" fill="none" fill-rule="evenodd">
        <g id="Artboard" transform="translate(-54.000000, -579.000000)">
            <g id="icon_triple_inverted" transform="translate(62.000000, 587.000000)">
                <g id="Icon1_colorsinverted" transform="translate(98.000000, 0.000000)">
                    <g id="Rectangle">
                        <use fill="#FFFFFF" fill-rule="evenodd" xlink:href="#path-1"></use>
                        <rect stroke="#444444" stroke-width="8" x="-4" y="-4" width="126" height="126" rx="16"></rect>
                    </g>
                    <path d="M96.79,107.38 L34.452537,107.38 L34.452537,107.38 C31.1388285,107.38 28.452537,104.693708 28.452537,101.38 C28.452537,99.7829431 29.089248,98.2517861 30.2216604,97.1256277 L96.5591235,31.1545294 L96.5591235,31.1545294 C98.9087484,28.8178808 102.707724,28.8284003 105.044372,31.1780252 C106.162411,32.3022733 106.79,33.8233592 106.79,35.4089017 L106.79,97.38 L106.79,97.38 C106.79,102.902847 102.312847,107.38 96.79,107.38 Z" id="Triangle" fill="#F77E25"></path>
                    <path d="M83.22,92.63 L20.882537,92.63 L20.882537,92.63 C17.5688285,92.63 14.882537,89.9437085 14.882537,86.63 C14.882537,85.0329431 15.519248,83.5017861 16.6516604,82.3756277 L82.9891235,16.4045294 L82.9891235,16.4045294 C85.3387484,14.0678808 89.1377237,14.0784003 91.4743723,16.4280252 C92.5924115,17.5522733 93.22,19.0733592 93.22,20.6589017 L93.22,82.63 L93.22,82.63 C93.22,88.1528475 88.7428475,92.63 83.22,92.63 Z" id="Triangle" fill="#7B060F" transform="translate(52.510000, 51.920000) rotate(180.000000) translate(-52.510000, -51.920000) "></path>
                </g>
                <g id="Icon1_colorsinverted" transform="translate(50.000000, 41.000000)">
                    <g id="Rectangle">
                        <use fill="#FFFFFF" fill-rule="evenodd" xlink:href="#path-2"></use>
                        <rect stroke="#444444" stroke-width="8" x="-4" y="-4" width="128" height="128" rx="16"></rect>
                    </g>
                    <path d="M98.6,109.2 L34.7900004,109.2 L34.7900004,109.2 C31.4762919,109.2 28.7900004,106.513708 28.7900004,103.2 C28.7900004,101.602943 29.4267114,100.071786 30.5591239,98.9456277 L98.3691235,31.5101253 L98.3691235,31.5101253 C100.718748,29.1734767 104.517724,29.1839961 106.854372,31.5336211 C107.972411,32.6578692 108.6,34.178955 108.6,35.7644976 L108.6,99.2 L108.6,99.2 C108.6,104.722847 104.122847,109.2 98.6,109.2 Z" id="Triangle" fill="#F77E25"></path>
                    <path d="M84.8,94.2 L20.9900004,94.2 L20.9900004,94.2 C17.6762919,94.2 14.9900004,91.5137085 14.9900004,88.2 C14.9900004,86.6029431 15.6267114,85.0717861 16.7591239,83.9456277 L84.5691235,16.5101253 L84.5691235,16.5101253 C86.9187484,14.1734767 90.7177237,14.1839961 93.0543723,16.5336211 C94.1724115,17.6578692 94.8,19.178955 94.8,20.7644976 L94.8,84.2 L94.8,84.2 C94.8,89.7228475 90.3228475,94.2 84.8,94.2 Z" id="Triangle" fill="#7B060F" transform="translate(53.400000, 52.800000) rotate(180.000000) translate(-53.400000, -52.800000) "></path>
                </g>
                <g id="Icon1_colorsinverted" transform="translate(0.000000, 91.000000)">
                    <g id="Rectangle">
                        <use fill="#FFFFFF" fill-rule="evenodd" xlink:href="#path-3"></use>
                        <rect stroke="#444444" stroke-width="8" x="-4" y="-4" width="128" height="128" rx="16"></rect>
                    </g>
                    <path d="M98.6,109.2 L34.7900004,109.2 L34.7900004,109.2 C31.4762919,109.2 28.7900004,106.513708 28.7900004,103.2 C28.7900004,101.602943 29.4267114,100.071786 30.5591239,98.9456277 L98.3691235,31.5101253 L98.3691235,31.5101253 C100.718748,29.1734767 104.517724,29.1839961 106.854372,31.5336211 C107.972411,32.6578692 108.6,34.178955 108.6,35.7644976 L108.6,99.2 L108.6,99.2 C108.6,104.722847 104.122847,109.2 98.6,109.2 Z" id="Triangle" fill="#F77E25"></path>
                    <path d="M84.8,94.2 L20.9900004,94.2 L20.9900004,94.2 C17.6762919,94.2 14.9900004,91.5137085 14.9900004,88.2 C14.9900004,86.6029431 15.6267114,85.0717861 16.7591239,83.9456277 L84.5691235,16.5101253 L84.5691235,16.5101253 C86.9187484,14.1734767 90.7177237,14.1839961 93.0543723,16.5336211 C94.1724115,17.6578692 94.8,19.178955 94.8,20.7644976 L94.8,84.2 L94.8,84.2 C94.8,89.7228475 90.3228475,94.2 84.8,94.2 Z" id="Triangle" fill="#7B060F" transform="translate(53.400000, 52.800000) rotate(180.000000) translate(-53.400000, -52.800000) "></path>
                </g>
            </g>
        </g>
    </g>
</svg>