<?xml version="1.0" encoding="utf-8"?>
<!-- Generator: Adobe Illustrator 18.1.0, SVG Export Plug-In . SVG Version: 6.00 Build 0)  -->
<svg version="1.1" id="Layer_1" xmlns="http://www.w3.org/2000/svg" xmlns:xlink="http://www.w3.org/1999/xlink" x="0px" y="0px"
	 viewBox="0 0 167 168" enable-background="new 0 0 167 168" xml:space="preserve">
<path fill="#74C485" d="M167,36.8C167,16.5,150.5,0,130.2,0H36.8C16.5,0,0,16.5,0,36.8v94.4C0,151.5,16.5,168,36.8,168h93.4
	c20.3,0,36.8-16.5,36.8-36.8V36.8z"/>
<path fill="#FFFFFF" d="M34.9,82.1c0,0,0.1,0.1,0.1,0.1c0.1,0.1,0.2,0.1,0.3,0.2c2,1.4,4.4,2.6,5.4,3.1c0.4,0.2,0.8,0.4,1.2,0.5
	c11.4,4.7,30.3,2.1,38.5,0.7c-0.3-2.4-0.6-4.9-0.9-7.3c-2.6,0.4-7.1,1.4-11.4,1.8c-10.2,0.8-18.3,0.2-23.5-2c-5-2.1-8.5-5.2-9.9-8.5
	c-1.4-3.1,0.6-7.4,0.6-7.4c5.3-10.7,24.5-3.7,24.5-3.7s-6.2-19.4,3.4-24.4c9.5-4.9,13.3,5.9,13.4,5.9c0,0,0.9-3.7,4-8
	c0,0-5.3-11-20.2-4.7c-1.9,0.8-3.6,1.9-4.9,3.3c-3.5,3.5-5.3,8.9-5,15.6c0,1.1,0.1,2.2,0.2,3.1c-0.9-0.1-2-0.2-3-0.2
	c-6.6-0.1-12.1,1.7-15.7,5.3c-1.3,1.3-2.4,2.8-3.2,4.5c-2.1,4.4-2.4,9-0.8,13.2C29.2,76.6,31.6,79.6,34.9,82.1z"/>
<path fill="#FFFFFF" d="M140.3,91c-1.5-3.8-4.4-7.2-8.6-9.9c-1.1-0.7-3.4-2-6.6-3.3c-12-4.2-27.9-1.6-35.5-0.3
	c0.1,1.3,0.8,5.2,1,7.1c2.8-0.5,5.2-1.2,9.6-1.6c10.2-0.8,18.3-0.2,23.5,2c5,2.1,8.5,5.2,9.9,8.5c1.4,3.1-0.6,7.4-0.6,7.4
	c-5.3,10.7-24.5,3.7-24.5,3.7s7,21.2-3.4,24.4c-11.6,3.6-15-6.3-15.3-7.5c0,0-1.4,3.4-3.8,6.5c0,0,5.7,12.3,21.9,7.7
	c0,0,3.1-1.1,4.9-3.3c3.2-3.8,5.3-8.9,5-15.6c0-1.1-0.1-2.2-0.2-3.1c0.9,0.1,2,0.2,3,0.2c6.6,0.1,12.1-1.7,15.7-5.3
	c1.3-1.3,2.4-2.8,3.2-4.5C141.6,99.7,141.9,95.1,140.3,91z"/>
<path fill="#FFFFFF" d="M131.3,63.1c3.7,7.3-3.5,12.3-3.5,12.3c4.8,1.9,7.3,3.7,7.3,3.7c5-4.8,8-14.9-0.3-23.8
	c-3.6-3.8-8.9-5.3-15.6-5c-1.1,0-2.2,0.1-3.1,0.2c0.1-0.9,0.2-2,0.2-3c0.1-6.6-1.7-12.1-5.3-15.7c-1.3-1.3-2.8-2.4-4.5-3.2
	c-4.4-2.1-9-2.6-13.2-0.8c-36.1,15.4,6.3,85.5-22.2,100.4c-3,1.6-7.4-0.6-7.4-0.6C53,122.3,60,103.1,60,103.1s-19.4,6.2-24.4-3.4
	c-3.9-7.5,2.3-12,2.3-12c-0.9-0.4-3.9-1.9-6.3-3.8c-6.7,5.5-7.3,15.8,0.5,23.6c3.5,3.5,8.9,5.3,15.6,5c1.1,0,2.2-0.1,3.1-0.2
	c-0.1,0.9-0.2,2-0.2,3c-0.1,6.6,1.7,12.1,5.3,15.7c1.3,1.3,2.8,2.4,4.5,3.2c4.4,2.1,9,2.4,13.2,0.8c5.3-2,9.7-7,12.6-14
	c10.1-23.4-16.1-75.6,9.6-86.4c2.9-1.2,7.4,0.6,7.4,0.6c10.7,5.3,3.7,24.5,3.7,24.5S126.5,53.4,131.3,63.1z"/>
</svg>
