<?xml version="1.0" encoding="UTF-8"?>
<svg width="22px" height="16px" viewBox="0 0 22 16" version="1.1" xmlns="http://www.w3.org/2000/svg" xmlns:xlink="http://www.w3.org/1999/xlink">
    <!-- Generator: Sketch 46.2 (44496) - http://www.bohemiancoding.com/sketch -->
    <title>2674096_object_email_web_essential_icon</title>
    <desc>Created with Sketch.</desc>
    <defs></defs>
    <g id="Contact" stroke="none" stroke-width="1" fill="none" fill-rule="evenodd">
        <g id="Artboard" transform="translate(-120.000000, -529.000000)" stroke="#19181B" stroke-width="0.5" fill="#000000" fill-rule="nonzero">
            <g id="Group-3" transform="translate(121.000000, 448.000000)">
                <g id="2674096_object_email_web_essential_icon" transform="translate(0.000000, 82.000000)">
                    <path d="M18.75,3.65720526e-16 L1.25,3.65720526e-16 C0.559644063,0 8.45442189e-17,0.553060015 0,1.23529412 L0,12.7647059 C8.45442189e-17,13.44694 0.559644063,14 1.25,14 L18.75,14 C19.4403559,14 20,13.44694 20,12.7647059 L20,1.23529412 C20,0.553060015 19.4403559,0 18.75,3.65720526e-16 Z M18.4833333,0.823529412 L10,7.30470588 L1.51666667,0.823529412 L18.4833333,0.823529412 Z M0.833333333,12.5958824 L0.833333333,1.34235294 L7.25416667,6.24647059 L0.833333333,12.5958824 Z M1.42083333,13.1764706 L7.91666667,6.75705882 L9.74166667,8.15294118 C9.8914858,8.26691687 10.1001809,8.26691687 10.25,8.15294118 L12.0833333,6.75705882 L18.5791667,13.1764706 L1.42083333,13.1764706 Z M19.1666667,12.5958824 L12.7458333,6.24647059 L19.1666667,1.34235294 L19.1666667,12.5958824 Z" id="Shape"></path>
                </g>
            </g>
        </g>
    </g>
</svg>