<?xml version="1.0" encoding="UTF-8"?>
<svg width="20px" height="20px" viewBox="0 0 20 20" version="1.1" xmlns="http://www.w3.org/2000/svg" xmlns:xlink="http://www.w3.org/1999/xlink">
    <!-- Generator: Sketch 46.2 (44496) - http://www.bohemiancoding.com/sketch -->
    <title>logo_linkedin</title>
    <desc>Created with Sketch.</desc>
    <defs></defs>
    <g id="Contact" stroke="none" stroke-width="1" fill="none" fill-rule="evenodd">
        <g id="Artboard" transform="translate(-121.000000, -616.000000)" fill-rule="nonzero" fill="#333333">
            <g id="Group-3" transform="translate(121.000000, 448.000000)">
                <g id="logo_linkedin" transform="translate(0.000000, 168.000000)">
                    <path d="M2,0 C0.892,0 -3.793262e-18,0.892 0,2 L0,18 C0,19.108 0.892,20 2,20 L18,20 C19.108,20 20,19.108 20,18 L20,2 C20,0.892 19.108,-3.793262e-18 18,0 L2,0 Z M3.1625,2.04625 L16.89875,2.04625 C17.5252112,2.04625 18.03,2.55103864 18.03,3.1775 L18.03,16.91875 C18.03,17.5452112 17.5252112,18.04875 16.89875,18.04875 L3.1625,18.04875 C2.53603864,18.04875 2.0325,17.5452112 2.0325,16.91875 L2.0325,3.1775 C2.0325,2.55103864 2.53603864,2.04625 3.1625,2.04625 Z M5.59625,4.23125 C4.828964,4.23125 4.2075,4.852714 4.2075,5.62 C4.2075,6.387286 4.828964,7.01 5.59625,7.01 C6.363536,7.01 6.985,6.387286 6.985,5.62 C6.985,4.852714 6.363536,4.23125 5.59625,4.23125 Z M12.87125,7.84875 C12.7143672,7.8481912 12.5616432,7.8547104 12.3625,7.865 C11.9257512,7.8875664 10.9059784,8.359698 10.5325,9.11375 C10.5325,8.7863764 10.53625,8.4861892 10.53625,8.0375 C10.0888848,8.0375 9.5039404,8.04 8.28125,8.04 C8.28125,9.41011 8.26625,14.2624676 8.26625,15.67625 L10.63375,15.67625 C10.63375,14.8375528 10.645,12.730444 10.645,11.4075 C10.645,10.9632724 10.9136088,9.9375 12.0175,9.9375 C13.0198484,9.9375 13.30125,10.7806036 13.30125,11.4075 C13.30125,12.7852812 13.29125,14.7332616 13.29125,15.67625 L15.6725,15.67625 C15.6725,14.754488 15.68077,12.2509616 15.6525,10.67125 C15.6181752,8.7531968 14.4511016,7.9345868 13.40375,7.87 C13.1882208,7.8567092 13.0281324,7.8493088 12.87125,7.84875 Z M4.4075,8.07 L4.4075,15.6725 L6.78125,15.6725 L6.78125,8.07 L4.4075,8.07 Z" id="rect2995"></path>
                </g>
            </g>
        </g>
    </g>
</svg>