<?xml version="1.0" encoding="UTF-8"?>
<svg width="20px" height="20px" viewBox="0 0 20 20" version="1.1" xmlns="http://www.w3.org/2000/svg" xmlns:xlink="http://www.w3.org/1999/xlink">
    <!-- Generator: Sketch 46.2 (44496) - http://www.bohemiancoding.com/sketch -->
    <title>logo_instagram</title>
    <desc>Created with Sketch.</desc>
    <defs></defs>
    <g id="Contact" stroke="none" stroke-width="1" fill="none" fill-rule="evenodd">
        <g id="Artboard" transform="translate(-121.000000, -570.000000)" fill-rule="nonzero" fill="#333333">
            <g id="Group-3" transform="translate(121.000000, 448.000000)">
                <g id="logo_instagram" transform="translate(0.000000, 122.000000)">
                    <path d="M10.08,4.98039216 C7.28,4.98039216 4.96,7.21568627 4.96,10 C4.96,12.7843137 7.24,15.0196078 10.08,15.0196078 C12.92,15.0196078 15.2,12.745098 15.2,10 C15.2,7.25490196 12.88,4.98039216 10.08,4.98039216 Z M10.08,13.2156863 C8.28,13.2156863 6.8,11.7647059 6.8,10 C6.8,8.23529412 8.28,6.78431373 10.08,6.78431373 C11.88,6.78431373 13.36,8.23529412 13.36,10 C13.36,11.7647059 11.88,13.2156863 10.08,13.2156863 Z" id="Shape"></path>
                    <ellipse id="Oval" cx="15.4" cy="4.8627451" rx="1.16" ry="1.1372549"></ellipse>
                    <path d="M18.4,1.92156863 C17.36,0.862745098 15.88,0.31372549 14.2,0.31372549 L5.96,0.31372549 C2.48,0.31372549 0.16,2.58823529 0.16,6 L0.16,14.0392157 C0.16,15.7254902 0.72,17.1764706 1.84,18.2352941 C2.92,19.254902 4.36,19.7647059 6,19.7647059 L14.16,19.7647059 C15.88,19.7647059 17.32,19.2156863 18.36,18.2352941 C19.44,17.2156863 20,15.7647059 20,14.0784314 L20,6 C20,4.35294118 19.44,2.94117647 18.4,1.92156863 Z M18.24,14.0784314 C18.24,15.2941176 17.8,16.2745098 17.08,16.9411765 C16.36,17.6078431 15.36,17.9607843 14.16,17.9607843 L6,17.9607843 C4.8,17.9607843 3.8,17.6078431 3.08,16.9411765 C2.36,16.2352941 2,15.254902 2,14.0392157 L2,6 C2,4.82352941 2.36,3.84313725 3.08,3.1372549 C3.76,2.47058824 4.8,2.11764706 6,2.11764706 L14.24,2.11764706 C15.44,2.11764706 16.44,2.47058824 17.16,3.17647059 C17.84,3.88235294 18.24,4.8627451 18.24,6 L18.24,14.0784314 L18.24,14.0784314 Z" id="Shape"></path>
                </g>
            </g>
        </g>
    </g>
</svg>